<svg id="ac94dced-d4e5-403e-b157-2108c7f528ed" data-name="Layer 1" xmlns="http://www.w3.org/2000/svg" width="865.76" height="682.89" viewBox="0 0 865.76 682.89"><path d="M171,641.56s-93.28-75.31-82.3-154.38S189.31,474,211.26,402.46s-59-165,14.42-230.3S366.73,169,412.46,155.83,454.53,41,558.78,39.1s190.69,62.13,152.05,245.69S791.08,489.06,807.54,555s-24.07,88.87-24.07,88.87Z" fill="#79e195"/><path d="M171,641.56s-93.28-75.31-82.3-154.38S189.31,474,211.26,402.46s-59-165,14.42-230.3S366.73,169,412.46,155.83,454.53,41,558.78,39.1s190.69,62.13,152.05,245.69S791.08,489.06,807.54,555s-24.07,88.87-24.07,88.87Z" fill="#fff" opacity="0.7"/><path d="M752.61,302.83s1.75-15.17,8.16-22.16,9.34-14,21-19.83,10.5-9.92,5.83-10.5-13.41,2.33-20.41,7-12.83,21.58-14.58,22.74-1.75-4.66,2.92-19.24,5.83-22.75,12.24-37.91,7.58-14.58,11.08-25.66-1.16-14-8.74-5.83-11.67,17.49-15.75,33.24-7.58,33.82-7.58,33.82-.58-3.49-5.25-13.41-1.75-11.08-9.91-20.41S719.37,203.1,710,202.52s-8.17,5.25-2.34,13.41,13.42,12.25,17.5,19.25,9.33,15.74,9.91,18.66,4.09,15.74,1.17,14-8.16-9.92-14-14.58-9.91-10.5-16.32-14.58-13.42-12.83-14.58-6.42-1.75,14,8.74,22.16,15.75,12.83,18.08,17.5,7,12.24,7,12.24l2.33,8.75Z" fill="#bcbec0"/><path d="M697.21,301.66s-5.25-17.5-9.92-24.49-4.08-11.67-16.91-24.5-18.66-13.41-23.33-25.07,0-11.09,5.84-8.75,9.91,10.49,18.66,19.83a109,109,0,0,1,18.08,25.07c3.5,7,6.41,11.67,6.41,11.67s-2.33-6.42-5.25-17.5-4.66-20.41-4.66-29.74,4.08-8.75,8.16-3.5a37.41,37.41,0,0,1,7.58,22.16c0,8.75.59,19.25,3.5,24.49s5.25,10.5,5.25,10.5,2.33-11.08,5.25-18.08S721.7,248,728.7,245.67s8.75,1.75,7.58,5.84S731.62,257.92,727,269s-7,15.16-7,21-1.16,19.24-1.16,19.24Z" fill="#d1d3d4"/><path d="M676.18,292.25c1.65,17.16,6.4,65.46,8.2,69.88,2.31,4.95,28.26,4.69,36.45,4.49,8.19.2,34.15.46,36.45-4.49,1.8-4.42,6.56-52.72,8.2-69.88Z" fill="#310c06"/><path d="M671.74,299.33s25.76,3.83,95.37,0c2.74-2.2,1.85-15,1.85-15l-97.57.55Z" fill="#79e195"/><line x1="678.25" y1="372.81" x2="660.76" y2="567.59" fill="none" stroke="#e6e7e8" stroke-miterlimit="10" stroke-width="3"/><line x1="764.57" y1="372.81" x2="782.06" y2="567.59" fill="none" stroke="#e6e7e8" stroke-miterlimit="10" stroke-width="3"/><rect x="661.34" y="354.73" width="118.39" height="19.76" rx="4.07" fill="#bcbec0"/><line x1="671.26" y1="443.96" x2="769.23" y2="443.96" fill="none" stroke="#e6e7e8" stroke-miterlimit="10" stroke-width="3"/><line x1="664.26" y1="512.77" x2="776.23" y2="512.77" fill="none" stroke="#e6e7e8" stroke-miterlimit="10" stroke-width="3"/><ellipse cx="284.28" cy="596.29" rx="103.78" ry="13.28" fill="#79e195" opacity="0.19"/><path d="M341.18,504.72,273.39,506l-67.8-1.26s-6.6,65.4,38.32,89.18c0,0,11,3.93,29.48,3.76,18.46.17,29.47-3.76,29.47-3.76C347.78,570.12,341.18,504.72,341.18,504.72Z" fill="#79e195"/><path d="M287.21,597a75.89,75.89,0,0,0,15.65-3.09c44.92-23.78,38.32-89.18,38.32-89.18l-21.1.39C321.76,520.19,324.05,569.46,287.21,597Z" opacity="0.2"/><ellipse cx="273.37" cy="504.72" rx="67.77" ry="6.32" fill="#79e195"/><path d="M336.57,506.3c0,2.88-28,5.2-62.54,5.2s-62.54-2.32-62.54-5.2,28-5.2,62.54-5.2S336.57,503.43,336.57,506.3Z" fill="#310c06"/><path d="M275.2,486.73c0-1.48-2.47-18.83,6.44-30.72s11.9-23.28,22.8-28.24c1,1-4.46,5.45-4,11.4s0,5.45-5,11.39.49,11.4-3.47,18.83-8.42,15.86-9.91,18.33-5.45,8.43-5.45,8.43Z" fill="#d1d3d4"/><path d="M274.58,508.9s8.55-26.13-4.33-66.76S225.66,367.82,198.9,352l-26.75-15.86s-3.3,12.56,5.95,19.16,15.19-.66,18.49,19.16,1.32,41.62,23.12,53.51,5.95,21.14,22.46,29.06,23.79,9.25,27.09,21.14-.66,31.05-.66,31.05S272.73,510.27,274.58,508.9Z" fill="#d1d3d4"/><path d="M269.26,478.14c3.3,11.89-.66,31.05-.66,31.05s4.13,1.08,6-.29c0,0,3.57-10.92,2.62-29.61-3.87-3.92-5-10.87-6-16.84-1.49-9.41-17.34-3.46-24.77-14.36s1.48-22.79-23.78-31.71-14.37-20.32-16.35-38.65-5-18.82-20.32-22.29c-7.92-1.79-11.74-5.16-13.6-8.21a14.9,14.9,0,0,0,5.68,8c9.24,6.61,15.19-.66,18.49,19.16s1.32,41.62,23.12,53.51,5.95,21.14,22.46,29.06S266,466.25,269.26,478.14Z" fill="#bcbec0"/><path d="M274.21,494.66s16.52-47.56,54.5-41.29c1,1-5.61.66-7.26,4s-5.62,3.3-10.24,4.29-.66,8.26-6.28,13.54-10.24-.66-14.86,5,4.95,10.57-2.31,14.53-13,8.45-10.57,13.21c.66,1.32-3.16.41-3.16.41Z" fill="#bcbec0"/><path d="M747.48,512.67s.16.05.21.05a81.31,81.31,0,0,1,12.48,4.56s-14.63,33.87-23.54,54.53l-29.57.16c-1.63-9.86,11.43-12.85,12.53-13.11-1-8.44-1.57-16.25-1.57-16.25s-22.29,5.5-47.82,11.74v-48.7S726.3,504.86,747.48,512.67Z" fill="#310c06"/><path d="M595.29,513.35,663,381.55c-8.39,37.59-54.58,131.8-54.58,131.8Z" fill="#79e195"/><path d="M595.29,513.35,663,381.55c-8.39,37.59-54.58,131.8-54.58,131.8Z" opacity="0.2"/><path d="M626,311a79.9,79.9,0,0,0,7,6.39c-20.81,32.87-37.49,44.72-68.63,54.53-1.94-2.21-3.88-4.36-5.66-6.45C578.3,362.63,613.69,335.36,626,311Z" fill="#79e195"/><path d="M626,311a79.9,79.9,0,0,0,7,6.39c-20.81,32.87-37.49,44.72-68.63,54.53-1.94-2.21-3.88-4.36-5.66-6.45C578.3,362.63,613.69,335.36,626,311Z" opacity="0.2"/><path d="M608.39,513.35h-13.1L663,381.55a41.06,41.06,0,0,0,1.31-10.12c-1-25.84-15.89-42.25-31.3-54.05-20.81,32.87-37.49,44.72-68.63,54.53,6.87,7.65,14.58,15.57,20.92,20.34-1.47,4.77-3,10.06-4.77,15.83-14.94,50.28-37.8,132.38-31.72,145.22,8.86,18.67,28.78,21,51.38,17,11.48-2,42.62-9.39,70-15.94v-42.2C639.17,512.78,608.39,513.35,608.39,513.35ZM626,311c-3.41-3.46-7.45-7.87-11.85-12.85-7.66,8.81-31.35,16.15-46.35,8.44a20.68,20.68,0,0,1-6.5-5L556,326.24s-1.32,0-3.83-.1c-1.26,9.33-2.52,18.66-3.67,27.15v.06c2.36,2.78,6,7.18,10.22,12.11C578.3,362.63,613.69,335.36,626,311Z" fill="#79e195"/><path d="M561.31,301.6,556,326.24s-1.32,0-3.83-.1c-6.5-.21-21.13-.79-41.73-2.2l.36-11.8.89-30.83.37-13.05v-.21c.21-1.68.37-3.36.53-5V263c1.78-21.7,1.1-43.2,18.4-45.24a33.65,33.65,0,0,1,21.13,8.91c10.74,9.81,40.73,47.34,62.07,71.51-7.66,8.81-31.35,16.15-46.35,8.44l-1.31-28.67Z" fill="#310c06"/><path d="M562.73,386.38l-14.26-33c2.36,2.78,6,7.18,10.22,12.11,1.78,2.09,3.72,4.24,5.66,6.45,6.87,7.65,14.58,15.57,20.92,20.34-1.47,4.77-3,10.06-4.77,15.83-11.43-.37-33.24-1.15-51.53-1.78,8.38-8.18,14-14.21,14.36-16.15.11-.47.26-1.47.47-2.83C550.25,386.85,557,386.53,562.73,386.38Z" fill="#79e195"/><path d="M562.73,386.38l-14.26-33c2.36,2.78,6,7.18,10.22,12.11,1.78,2.09,3.72,4.24,5.66,6.45,6.87,7.65,14.58,15.57,20.92,20.34-1.47,4.77-3,10.06-4.77,15.83-11.43-.37-33.24-1.15-51.53-1.78,8.38-8.18,14-14.21,14.36-16.15.11-.47.26-1.47.47-2.83C550.25,386.85,557,386.53,562.73,386.38Z" opacity="0.2"/><path d="M566.5,277.91l1.31,28.67a20.68,20.68,0,0,1-6.5-5Z" fill="#310c06"/><path d="M566.5,277.91l1.31,28.67a20.68,20.68,0,0,1-6.5-5Z" opacity="0.2"/><path d="M548.47,353.35l14.26,33c-5.77.15-12.48.47-18.93.94C544.64,381.55,546.37,368.76,548.47,353.35Z" fill="#79e195"/><path d="M489.86,442.26c-6.51,5.82-12.74,11.38-18.35,16.31L453.1,436.86,509,373l.68-23.27.74-25.74c20.6,1.41,35.23,2,41.73,2.2-1.26,9.33-2.52,18.66-3.67,27.15v.06c-2.1,15.41-3.83,28.2-4.67,34-.21,1.36-.36,2.36-.47,2.83-.31,1.94-6,8-14.36,16.15-8.76,8.49-20.56,19.29-32.35,29.93C494.36,438.28,492.11,440.27,489.86,442.26Z" fill="#ffc7ad"/><path d="M512.24,261.81c-5-18.66-5.92-35.86,5.4-43.67a71.88,71.88,0,0,1,13.32-.42c-17.3,2-16.62,23.54-18.4,45.24C512.45,262.6,512.35,262.18,512.24,261.81Z" fill="#79e195"/><path d="M491.11,249.91c1.05.52,1.73.89,1.73.89s7.55-.21,11.49-10.27c5.08-13.06-2.31-17-2.31-17s-1.21-1.21-2.78-2.88c6.5-.9,12.63-1.94,18.4-2.52-11.32,7.81-10.43,25-5.4,43.67l-.21,6.24v.21l-.37,13.05-15,1.42c-4.93-3.93-13.89-16.41-14.73-32.77.73-1.26,1.36-2.46,1.89-3.56a68.89,68.89,0,0,1,7.23,3.46Z" fill="#310c06"/><path d="M495.1,293.84c-9.28-12.47-16.67-26.21-17.15-37.8l-.36-.42a22.83,22.83,0,0,0,4.35-5.66c.84,16.36,9.8,28.84,14.73,32.77l15-1.42-.89,30.83A178,178,0,0,1,495.1,293.84Z" fill="#79e195"/><path d="M453.1,436.86l-5,5.66c-.94-22.33-1.57-43.67-1.57-58.29a28,28,0,0,1,2.94-13c10.9-21.8,49.54-21.91,60.18-21.54L509,373Z" fill="#79e195"/><path d="M482,222.23c7.55,5.19,17.25-1.57,17.25-1.57,1.57,1.67,2.78,2.88,2.78,2.88s7.39,3.93,2.31,17c-3.94,10.06-11.49,10.27-11.49,10.27s-.68-.37-1.73-.89l-.05,0-5.77-6.66s-.57,1.36-1.46,3.2c-.53,1.1-1.16,2.3-1.89,3.56a22.83,22.83,0,0,1-4.35,5.66,4.09,4.09,0,0,1-2.52,1.26c-2.31.11-9.65-.63-18.3-3.09-8.44-2.36-18.08-6.34-25.48-12.79a52.55,52.55,0,0,0,16.26-12.06c4.66-3.51,9.59,2,12.84,1.47s4.3-1.52,6.4-1.31,7.44,4.87,9,2.41-7.86-8.81-7.86-8.81c-.63-5.4,4.51-7.81,9.54-4.77a14.57,14.57,0,0,1,4.51,4.25A0,0,0,0,1,482,222.23Zm1.36,2.57c.79,2.3.42,4.45-1.83,5.61,0,0,5.09,4.14,7.55,1.78C491.38,230,484.14,225.27,483.35,224.8Z" fill="#f9b499"/><path d="M487.71,479.8l6.55-.1,4-.11-6.14,78.22a87,87,0,0,1,.89,14.31H416.67s0-5.13,5.87-10.33,30.51-18.34,30.51-18.34-1.68-28.58-3.25-62.86Z" fill="#310c06"/><path d="M479.06,190.62c.05,0,.05,0,.05,0,9.49,7.08,10.12,17.14,11.85,20.18,1.41,2.47,5.45,6.87,8.28,9.81,0,0-9.7,6.76-17.25,1.57a0,0,0,0,0-.05,0,14.57,14.57,0,0,0-4.51-4.25c-5-3-10.17-.63-9.54,4.77,0,0,9.38,6.34,7.86,8.81s-6.81-2.15-9-2.41-3.1.73-6.4,1.31-8.18-5-12.84-1.47A52.55,52.55,0,0,1,431.29,241l-.31.15a19.7,19.7,0,0,1-6.61,2c-5.66.47-11.16-3.25-13.89-8.28a10,10,0,0,1-1.36-4.83c.1-4,3.72-6.92,7-9.22a7.64,7.64,0,0,1,3.3-14.32,7.17,7.17,0,0,1,.95-6.71,7.24,7.24,0,0,1,6.18-2.83c-.42-2.62-.78-5.4,0-8a13.49,13.49,0,0,1,4.93-6.18,16.66,16.66,0,0,1,7.39-3.52,9.28,9.28,0,0,1,7.71,1.94,10.16,10.16,0,0,1,14.31-2,8.72,8.72,0,0,0,1.79,1.36c1.41.58,3,0,4.56,0,3.14.05,5.61,2.68,7.65,5.09C476.28,187.31,477.69,188.94,479.06,190.62Z" fill="#310c06"/><path d="M472.66,321.21,436.43,304l20.34-50.22c8.65,2.46,16,3.2,18.3,3.09a4.09,4.09,0,0,0,2.52-1.26l.36.42c.48,11.59,7.87,25.33,17.15,37.8l-19.4,28.79Z" fill="#310c06"/><path d="M496.62,436.23c-.74,12.8-1.52,28.16-2.36,43.47l-6.55.1c.52-9.44,1.36-23.43,2.15-37.54C492.11,440.27,494.36,438.28,496.62,436.23Z" fill="#79e195"/><path d="M496.62,436.23c-.74,12.8-1.52,28.16-2.36,43.47l-6.55.1c.52-9.44,1.36-23.43,2.15-37.54C492.11,440.27,494.36,438.28,496.62,436.23Z" opacity="0.2"/><path d="M485.29,243.2l5.77,6.66a68.89,68.89,0,0,0-7.23-3.46C484.72,244.56,485.29,243.2,485.29,243.2Z" fill="#f7a48b"/><path d="M483.35,224.8c.79.47,8,5.19,5.72,7.39-2.46,2.36-7.55-1.78-7.55-1.78C483.77,229.25,484.14,227.1,483.35,224.8Z" fill="#f7a48b"/><path d="M489.86,442.26c-.79,14.11-1.63,28.1-2.15,37.54l-37.91.79c-.05-.95-.1-1.94-.16-2.94,0,0,.58-.47,1.68-1.42l.16-.15,21.39-15.89-1.36-1.62C477.12,453.64,483.35,448.08,489.86,442.26Z" fill="#79e195"/><path d="M471.51,458.57l1.36,1.62-21.39,15.89-.16.15c-1.1.95-1.68,1.42-1.68,1.42s-5.71,13-10.17,16.25-7.81,5.3-14.26,4.51-17.4-7-17.77-9,7.24-6.23,8.65-7.6,8.13-12.21,8.13-12.21c-3.41-.68-13.16,8.75-14.89,5.61s7.86-13.27,10.54-14.37,13.42-1.36,13.42-1.36l14.83-16.94,5-5.66Z" fill="#79e195"/><path d="M471.51,458.57l1.36,1.62-21.39,15.89-.16.15c-1.1.95-1.68,1.42-1.68,1.42s-5.71,13-10.17,16.25-7.81,5.3-14.26,4.51-17.4-7-17.77-9,7.24-6.23,8.65-7.6,8.13-12.21,8.13-12.21c-3.41-.68-13.16,8.75-14.89,5.61s7.86-13.27,10.54-14.37,13.42-1.36,13.42-1.36l14.83-16.94,5-5.66Z" fill="#fff" opacity="0.5"/><path d="M436.43,304l36.23,17.2c-9.75,19.34-20.71,41.1-24.8,49.12-.57,1.21-1.05,2.1-1.31,2.62-2.73,5.3-49.91,37.8-79,57.46l-15-21.6,64.48-57Z" fill="#ffc7ad"/><path d="M367.54,430.41l1.58,2.26-23.54,14.94c.21,2.1-.53,4.93-2.73,7.86-3.09,4.15-6.76,8.44-12.21,7.34.36-.89.83-2,1.25-3.19,0-3.1-2.2-7.82-4.71-8.24a7.82,7.82,0,0,0-6.35,2c-1.1,3.35-2.15,6.71-2.62,8.54-3.3-1.94-5.77-3.62-6.4-6.08s-.68-13.63,1.63-18.51c1.57-3.35,11.9-7.65,18.14-10l21-18.51Z" fill="#79e195"/><path d="M367.54,430.41l1.58,2.26-23.54,14.94c.21,2.1-.53,4.93-2.73,7.86-3.09,4.15-6.76,8.44-12.21,7.34.36-.89.83-2,1.25-3.19,0-3.1-2.2-7.82-4.71-8.24a7.82,7.82,0,0,0-6.35,2c-1.1,3.35-2.15,6.71-2.62,8.54-3.3-1.94-5.77-3.62-6.4-6.08s-.68-13.63,1.63-18.51c1.57-3.35,11.9-7.65,18.14-10l21-18.51Z" fill="#fff" opacity="0.5"/><path d="M319.26,468.27l1.57-3.41c.89-2.52,3.93,0,3.93,0l-1.15,4.56L321.88,476s12.06,8,11.53,10.17-13.31,17-22.49,13.21-12.21-24.49-8.65-24.49,14.05-.42,14.05-.42Z" fill="#d1d3d4"/><path d="M318.21,461.92c.47-1.83,1.52-5.19,2.62-8.54a7.82,7.82,0,0,1,6.35-2c2.51.42,4.71,5.14,4.71,8.24-.42,1.2-.89,2.3-1.25,3.19-.58,1.47-1,2.42-1,2.42a6.72,6.72,0,0,1-6,4.19l1.15-4.56s-3-2.52-3.93,0l-1.57,3.41c-1.52-1.31-1.31-3.62-1.31-5A7.44,7.44,0,0,1,318.21,461.92Z" fill="#310c06"/><ellipse cx="158.08" cy="629.5" rx="103.78" ry="13.28" fill="#79e195" opacity="0.19"/><path d="M229.76,589.06,152,590.51l-77.79-1.45s-7.58,12.2,44,39.49c0,0,12.63,4.51,33.82,4.3,21.18.21,33.82-4.3,33.82-4.3C237.34,601.26,229.76,589.06,229.76,589.06Z" fill="#79e195"/><path d="M167.84,632.09c11.45-1.24,18-3.54,18-3.54,51.54-27.29,44-39.49,44-39.49l-24.2.45C207.48,606.81,210.11,600.51,167.84,632.09Z" opacity="0.2"/><path d="M229.72,589.06c0,4-34.82,7.25-77.76,7.25s-77.77-3.25-77.77-7.25S109,581.81,152,581.81,229.72,585.06,229.72,589.06Z" fill="#79e195"/><path d="M224.47,590.88c0,3.29-32.12,6-71.75,6S81,594.17,81,590.88s32.13-6,71.76-6S224.47,587.58,224.47,590.88Z" fill="#310c06"/><path d="M152,589.06s-4-11.16.59-21,12.12-7.58,12.12-24.25-6.82-15.16-2.27-26.53,15.16-13.64,15.16-26.53-.76-13.64,0-22.74-13.64-17.43-23.5-9.09-2.27,15.91-3.79,29.56-7.58,3.79-9.09,22S145,527.11,143.45,537s-15.92,1.51-10.61,18.95,9.1,19.7,9.1,23.49,3.79,9.86,3.79,9.86Z" fill="#d1d3d4"/><path d="M125.26,590s.76-6.06-3.79-14.4-12.89-1.51-13.64-12.88,6.82-9.1,2.27-17.44-12.89,0-15.16-18.94.76-25-6.82-34.11-19.71-10.61-19.71-22S76,452.83,92.67,458.14s30.32,9.09,34.86,28-9.09,27.29.76,38.66,17.44,10.61,12.89,23.5-6.07,12.12-7.58,19.7-.76,12.13,0,14.41,2.27,7.57,2.27,7.57Z" fill="#bcbec0"/><path d="M135.87,590S133,575.81,141,566.15s17.62-4.55,24.44-15.92,3.41-18.76,17.63-26.15,16.48-6.82,21.6-15.92,13.64-17.62,26.15-11.93,11.37,10.23,11.37,10.23-8-4.55-13.65,2.27,2.28,9.67-7.39,18.19-18.76,1.14-24.44,13.65,2.84,8-5.12,21-14.78,16.49-27.28,15.92-19.9,3.41-21.61,6.82,0,5.12,0,5.12Z" fill="#bcbec0"/><path d="M160.13,589.27s-3.41-8.34,6.06-14.78,11.75-.38,18.19-7.2,1.52-14.41,13.27-16.3,7.2-5.69,14-9.1,15.92,0,17.43,3.41c-.76,3.42-10.61-1.13-12.13,8.72s4.17,14-4.16,17.81-17.44-1.51-20.47,4.93-1.52,12.13-4.17,12.51S163.54,591.16,160.13,589.27Z" fill="#d1d3d4"/><path d="M77.51,464.58s26.91,0,34.86,20.09-4.92,26.9,3,41.31,17.05,11.37,13.26,22.74-11.75,12.12-6.06,18.19,6.06,9.09,6.06,12.88a53,53,0,0,0,1.52,9.86" fill="none" stroke="#d1d3d4" stroke-miterlimit="10" stroke-width="0.25"/><path d="M161.26,463.44s8.72,20.85,2.28,30.7-18.95,6.07-15.16,21.6,13.26,10.62,6.44,25S141.56,559,143.07,566.91s5.31,21.6,5.31,21.6" fill="none" stroke="#bcbec0" stroke-miterlimit="10" stroke-width="0.25"/><path d="M239.71,504.37s-11.37-11-20.46-.37-3.41,14-11.75,18.57-20.47,4.92-23.88,16.67S181,556.3,171.5,562s-22-.76-27.29,9.85-6.44,14.78-6.06,17.44" fill="none" stroke="#d1d3d4" stroke-miterlimit="10" stroke-width="0.25"/><path d="M227.21,544.93s-10.61-4.93-15.16,1.51,2.65,10.23-4.55,14.4-12.89-2.65-15.54,5.69-.76,8.34-11,11.75-7.58,12.5-7.58,12.5" fill="none" stroke="#bcbec0" stroke-miterlimit="10" stroke-width="0.25"/></svg>